<?xml version="1.0" encoding="utf-8"?>
<!-- Generator: Adobe Illustrator 16.0.0, SVG Export Plug-In . SVG Version: 6.00 Build 0)  -->
<!DOCTYPE svg PUBLIC "-//W3C//DTD SVG 1.1//EN" "http://www.w3.org/Graphics/SVG/1.1/DTD/svg11.dtd">
<svg version="1.1" id="Layer_1" xmlns="http://www.w3.org/2000/svg" xmlns:xlink="http://www.w3.org/1999/xlink" x="0px" y="0px"
	 width="2414.861px" height="510px" viewBox="0 0 2414.861 510" enable-background="new 0 0 2414.861 510" xml:space="preserve">
<g>
	<path fill="#0075B2" d="M563.658,143.74h128.391v21.932H586.047v70.211h105.089v21.931H586.047v88.031h105.089v21.932H563.658
		V143.74z"/>
	<path fill="#0075B2" d="M722.555,210.951h15.672v141.687h60.343v15.139h-76.015V210.951z"/>
	<path fill="#0075B2" d="M823.517,210.951h89.873v15.352h-74.201v49.148h73.562v15.352h-73.562v61.621h73.562v15.353h-89.233
		V210.951z"/>
	<path fill="#0075B2" d="M1091.751,237.284l-12.153,11.514c-8.742-8.599-18.321-15.121-28.732-19.563
		c-10.413-4.441-20.56-6.664-30.438-6.664c-12.297,0-24.006,3.022-35.128,9.062c-11.125,6.042-19.742,14.233-25.854,24.574
		c-6.113,10.341-9.169,21.269-9.169,32.783c0,11.799,3.162,23.012,9.488,33.636c6.325,10.625,15.067,18.977,26.227,25.053
		c11.157,6.077,23.383,9.115,36.675,9.115c16.133,0,29.779-4.547,40.938-13.646c11.157-9.096,17.768-20.895,19.83-35.395h-50.001
		v-15.139h67.592c-0.144,24.237-7.34,43.48-21.589,57.73c-14.251,14.25-33.316,21.375-57.197,21.375
		c-28.998,0-51.956-9.878-68.871-29.638c-13.007-15.209-19.51-32.8-19.51-52.773c0-14.854,3.731-28.678,11.194-41.472
		s17.697-22.796,30.704-30.011c13.007-7.213,27.719-10.821,44.137-10.821c13.29,0,25.8,2.398,37.527,7.196
		C1069.149,219,1080.592,226.694,1091.751,237.284z"/>
	<path fill="#0075B2" d="M1128.639,210.951h15.672v156.826h-15.672V210.951z"/>
	<path fill="#0075B2" d="M1181.092,210.951h31.237c17.412,0,29.211,0.713,35.395,2.136c9.311,2.136,16.88,6.707,22.708,13.716
		c5.827,7.01,8.742,15.639,8.742,25.887c0,8.541-2.009,16.048-6.023,22.523c-4.016,6.477-9.755,11.369-17.218,14.678
		c-7.463,3.31-17.769,5-30.917,5.071l56.397,72.815h-19.389l-56.4-72.815h-8.86v72.815h-15.672V210.951z M1196.764,226.303v53.306
		l27.016,0.215c10.465,0,18.206-0.995,23.225-2.985c5.02-1.989,8.936-5.17,11.747-9.542c2.813-4.371,4.219-9.257,4.219-14.661
		c0-5.259-1.425-10.038-4.271-14.339c-2.849-4.3-6.585-7.373-11.213-9.222c-4.627-1.847-12.316-2.772-23.064-2.772H1196.764z"/>
	<path fill="#0075B2" d="M1702.3,185.318l-17.667,13.555c-9.747-12.691-21.451-22.312-35.105-28.861
		c-13.657-6.549-28.659-9.824-45.006-9.824c-17.871,0-34.42,4.291-49.65,12.87c-15.229,8.581-27.033,20.104-35.41,34.573
		c-8.376,14.468-12.564,30.741-12.564,48.813c0,27.314,9.366,50.107,28.1,68.384s42.363,27.415,70.896,27.415
		c31.374,0,57.62-12.285,78.74-36.858l17.667,13.403c-11.17,14.217-25.106,25.206-41.807,32.973
		c-16.703,7.768-35.36,11.652-55.972,11.652c-39.193,0-70.111-13.047-92.752-39.143c-18.987-22.031-28.48-48.634-28.48-79.806
		c0-32.795,11.499-60.388,34.497-82.776c22.997-22.389,51.807-33.583,86.431-33.583c20.916,0,39.802,4.139,56.657,12.413
		C1677.727,158.794,1691.536,170.393,1702.3,185.318z"/>
	<path fill="#0075B2" d="M1739.05,210.951h15.672v141.687h60.343v15.139h-76.015V210.951z"/>
	<path fill="#0075B2" d="M1837.666,210.951h15.672v156.826h-15.672V210.951z"/>
	<path fill="#0075B2" d="M1889.373,367.776V210.951h3.411l104.373,120.215V210.951h15.458v156.826h-3.518l-103.52-118.752v118.752
		H1889.373z"/>
	<path fill="#0075B2" d="M2048.544,210.951h15.672v156.826h-15.672V210.951z"/>
	<path fill="#0075B2" d="M2246.202,240.056l-12.367,9.488c-6.823-8.883-15.016-15.618-24.574-20.203
		c-9.56-4.584-20.062-6.876-31.504-6.876c-12.51,0-24.094,3.003-34.755,9.009c-10.661,6.007-18.924,14.073-24.787,24.201
		c-5.864,10.128-8.796,21.519-8.796,34.169c0,19.12,6.557,35.075,19.67,47.869c13.113,12.794,29.655,19.19,49.628,19.19
		c21.962,0,40.334-8.6,55.118-25.801l12.367,9.383c-7.819,9.951-17.574,17.644-29.266,23.081
		c-11.691,5.437-24.752,8.155-39.18,8.155c-27.436,0-49.077-9.132-64.926-27.398c-13.292-15.422-19.937-34.044-19.937-55.865
		c0-22.957,8.049-42.271,24.147-57.943s36.265-23.508,60.502-23.508c14.641,0,27.86,2.896,39.659,8.688
		C2229.001,221.489,2238.667,229.608,2246.202,240.056z"/>
	<path fill="#0075B2" d="M2341.726,210.951l73.136,156.826h-16.929l-24.665-51.6h-67.561l-24.431,51.6h-17.484l74.096-156.826
		H2341.726z M2339.746,244.27l-26.872,56.768h53.615L2339.746,244.27z"/>
</g>
<polygon fill="#FFDF7F" points="468.951,216.91 450.902,234.504 495.454,234.563 536.245,194.803 375.262,171.41 375.313,203.305 
	"/>
<polygon fill="#FFDF7F" points="392.242,453 370.378,441.505 370.397,476.65 433.831,510 405.751,346.274 373.934,346.254 "/>
<polyline fill="#FFDF7F" points="259.331,60.646 298.06,60.667 268.123,0 185.27,167.882 0,194.803 85.056,277.711 85.112,234.281 
	67.293,216.91 206.065,196.746 259.039,89.406 "/>
<polygon fill="#FFDF7F" points="256.729,393.737 144.003,453 162.391,345.791 130.574,345.812 102.414,510 256.706,428.884 
	256.706,428.884 256.729,393.737 "/>
<polygon fill="#0075B2" points="485.773,244 441.161,244 362,244 362,201.391 362,169.504 350.905,167.882 303.163,71 268,71 
	268,71.039 268,244 96,244 96,245.032 96,288.518 133.99,325.479 132.086,337 163.898,337 268,337 268,387.758 268,422.893 
	362,472.311 362,437.176 362,337 372.347,337 404.16,337 402.185,325.479 "/>
<g>
	<path fill="#FFDF7F" d="M1370.131,263.964v-79.319h25.039v79.319h79.867v25.038h-79.867v79.319h-25.039v-79.319h-79.867v-25.038
		H1370.131z"/>
</g>
</svg>
