<?xml version="1.0" encoding="utf-8"?>
<!-- Generator: Adobe Illustrator 16.0.0, SVG Export Plug-In . SVG Version: 6.00 Build 0)  -->
<!DOCTYPE svg PUBLIC "-//W3C//DTD SVG 1.1//EN" "http://www.w3.org/Graphics/SVG/1.1/DTD/svg11.dtd">
<svg version="1.1" xmlns="http://www.w3.org/2000/svg" xmlns:xlink="http://www.w3.org/1999/xlink" x="0px" y="0px"
	 width="536.245px" height="510px" viewBox="0 0 536.245 510" enable-background="new 0 0 536.245 510" xml:space="preserve">
<g id="Layer_4">
	<polygon fill="#0075B2" points="468.951,216.911 450.902,234.504 495.454,234.563 536.245,194.803 375.262,171.411 
		375.313,203.304 	"/>
	<polygon fill="#0075B2" points="392.242,453 370.378,441.505 370.397,476.65 433.831,510 405.751,346.274 373.934,346.254 	"/>
	<polyline fill="#0075B2" points="259.331,60.646 298.06,60.667 268.123,0 185.27,167.882 0,194.803 85.056,277.711 85.112,234.281 
		67.292,216.911 206.065,196.747 259.039,89.406 	"/>
	<polygon fill="#0075B2" points="256.729,393.737 144.003,453 162.391,345.791 130.574,345.812 102.414,510 256.706,428.884 
		256.706,428.884 256.729,393.737 	"/>
</g>
<g id="Layer_6">
</g>
<g id="Layer_5">
	<polygon fill="#C1272D" points="485.773,244 441.161,244 362,244 362,201.391 362,169.504 350.905,167.882 303.163,71 268,71 
		268,71.04 268,244 96,244 96,245.032 96,288.518 133.99,325.479 132.086,337 163.898,337 268,337 268,387.758 268,422.893 
		362,472.311 362,437.176 362,337 372.347,337 404.16,337 402.185,325.479 	"/>
</g>
</svg>
